Exact Audio Copy V1.0 beta 3 from 29. August 2011

Отчёт EAC об извлечении, выполненном 22. апреля 2013, 9:39

Deathrow / Deception Ignored

Дисковод: PLEXTOR DVDR   PX-810SA   Adapter: 3  ID: 1

Режим чтения                 : Достоверность
Использование точного потока : Да
Отключение кэша аудио        : Да
Использование указателей C2  : Нет

Коррекция смещения при чтении                     : 48
Способность читать области Lead-in и Lead-out     : Нет
Заполнение пропущенных сэмплов тишиной            : Да
Удаление блоков с тишиной в начале и конце        : Нет
При вычислениях CRC использовались нулевые сэмплы : Да
Интерфейс                                         : Установленный внешний ASPI-интерфейс

Выходной формат          : Пользовательский кодировщик
Выбранный битрейт        : 768 kBit/s
Качество                 : Высокий
Добавление ID3-тега      : Нет
Утилита сжатия           : C:\Program Files\Monkey's Audio\MAC.exe
Дополнительные параметры : %source% %dest% -c3000


TOC извлечённого CD

     Трек |   Старт  | Длительность | Начальный сектор | Конечный сектор 
    ---------------------------------------------------------------------
       1  |  0:00.00 |    5:32.60   |           0      |      24959      
       2  |  5:32.60 |    4:28.02   |       24960      |      45061      
       3  | 10:00.62 |    8:11.65   |       45062      |      81951      
       4  | 18:12.52 |    3:12.10   |       81952      |      96361      
       5  | 21:24.62 |    4:51.17   |       96362      |     118203      
       6  | 26:16.04 |    9:21.68   |      118204      |     160346      
       7  | 35:37.72 |    7:03.02   |      160347      |     192073      
       8  | 42:40.74 |    4:19.58   |      192074      |     211556      


Характеристики диапазона извлечения и сообщения об ошибках

Выбранный диапазон

     Имя файла C:\Users\Atheist\Desktop\Deathrow\Deathrow - Deception Ignored.wav

     Пиковый уровень 98.8 %
     Скорость извлечения 7.0 X
     Качество диапазона 100.0 %
     CRC теста 95D1E383
     CRC копии 95D1E383
     Копирование... OK

Ошибок не произошло

 
AccurateRip: сводка
 
Трек  1  отсутствует в базе данных
Трек  2  отсутствует в базе данных
Трек  3  отсутствует в базе данных
Трек  4  отсутствует в базе данных
Трек  5  отсутствует в базе данных
Трек  6  отсутствует в базе данных
Трек  7  отсутствует в базе данных
Трек  8  отсутствует в базе данных
 
Ни одного трека нет в базе AccurateRip

Конец отчёта

==== Контрольная сумма отчёта 523176CB3883BC032C1B460F97D762B682141EEE4AE613984DAD543E5EC4880D ====
